# xmcd
# Copyright (C) 1995-1998 Ti Kan
#
# Track frame offsets:
#       150
#       11820
#       23391
#       40058
#       53575
#       70152
#       94288
#       104564
#       116785
#       127993
#
# Disc length: 1964 seconds
#
# Revision: 0
# Processed by: cddbd v1.5.2PL0 Copyright (c) Steve Scherf et al.
# Submitted via: CD-Transfer v1.0
#
DISCID=7d07aa0a
DTITLE=Madschedonia - Obst Der Nation
DYEAR=07
DGENRE=
TTITLE0=A Schworza Brille
TTITLE1=I Suich A Frau
TTITLE2=Senorita Rosita
TTITLE3=Liabe Leit
TTITLE4=San Benedetto Frizzante
TTITLE5=Puschtra Zi Sein
TTITLE6=Notscha
TTITLE7=Niemand Will Ins Spieln Hearn
TTITLE8=Macedonia
TTITLE9=Meinawelt
EXTD=
EXTT0=
EXTT1=
EXTT2=
EXTT3=
EXTT4=
EXTT5=
EXTT6=
EXTT7=
EXTT8=
EXTT9=
PLAYORDER=
